<svg id="Layer_1" data-name="Layer 1" xmlns="http://www.w3.org/2000/svg" viewBox="0 0 300 300"><defs><style>.cls-1{fill:#9ac46a;}</style></defs><path class="cls-1" d="M151,11C73.83,11,11,73.83,11,151A140.62,140.62,0,0,0,54,252a138.45,138.45,0,0,0,90.27,38.64c1.68.12,3.47.34,5.15.34H151A139.85,139.85,0,0,0,291,151C291,73.83,228.17,11,151,11Zm94.19,227.7c-5.15-18.26-29.57-28.12-47.93-35.4L191,200.73c-12-4.93-12-9.52-12-16.13a23.3,23.3,0,0,1,6.61-15.46c10.86-9.52,16.57-22.62,16.57-37.85,0-30.8-21.5-53.09-51.18-53.09S100.82,100,100.82,131.29c0,15.9,5.38,28.67,15.8,37.86,4.36,3.91,6.27,10.75,6.27,15.45s0,10.53-14.56,16.47c-17.92,7.39-41.67,17.47-52.53,36.51A129.65,129.65,0,0,1,22.2,151C22.2,80,80,22.2,151,22.2S279.8,80,279.8,151A127.85,127.85,0,0,1,245.19,238.7Z"/></svg>